<mxfile host="app.diagrams.net" modified="2022-05-28T23:34:37.561Z" agent="5.0 (Windows NT 10.0; Win64; x64) AppleWebKit/537.36 (KHTML, like Gecko) Chrome/102.0.5005.63 Safari/537.36" etag="aqwnjId7iaKBVEttHVsP" version="18.1.3" type="github">
  <diagram id="OqxOZFU5H_3-W8lF1OTQ" name="Page-1">
    <mxGraphModel dx="1483" dy="1996" grid="1" gridSize="10" guides="1" tooltips="1" connect="1" arrows="1" fold="1" page="1" pageScale="1" pageWidth="827" pageHeight="1169" math="0" shadow="0">
      <root>
        <mxCell id="0" />
        <mxCell id="1" parent="0" />
        <mxCell id="QUh3xT0CynpCOKGYQze3-1" value="&lt;font style=&quot;font-size: 14px;&quot;&gt;&lt;b&gt;SUCURSAL&lt;/b&gt;&lt;/font&gt;" style="rounded=1;whiteSpace=wrap;html=1;" vertex="1" parent="1">
          <mxGeometry x="100" y="290" width="120" height="60" as="geometry" />
        </mxCell>
        <mxCell id="QUh3xT0CynpCOKGYQze3-3" value="&lt;b&gt;EMPLEADOS&lt;/b&gt;" style="rounded=1;whiteSpace=wrap;html=1;fontSize=14;" vertex="1" parent="1">
          <mxGeometry x="100" y="630" width="120" height="60" as="geometry" />
        </mxCell>
        <mxCell id="QUh3xT0CynpCOKGYQze3-4" value="&lt;b&gt;REVISTAS&lt;/b&gt;" style="rounded=1;whiteSpace=wrap;html=1;fontSize=14;" vertex="1" parent="1">
          <mxGeometry x="660" y="272.5" width="120" height="60" as="geometry" />
        </mxCell>
        <mxCell id="QUh3xT0CynpCOKGYQze3-5" value="&lt;b&gt;PERIODISTAS&lt;/b&gt;" style="rounded=1;whiteSpace=wrap;html=1;fontSize=14;" vertex="1" parent="1">
          <mxGeometry x="1320" y="290" width="120" height="60" as="geometry" />
        </mxCell>
        <mxCell id="QUh3xT0CynpCOKGYQze3-6" value="&lt;font size=&quot;1&quot; style=&quot;&quot;&gt;&lt;b style=&quot;font-size: 13px;&quot;&gt;SECCIONES FIJAS DE REVISTA&lt;/b&gt;&lt;/font&gt;" style="rounded=1;whiteSpace=wrap;html=1;fontSize=14;" vertex="1" parent="1">
          <mxGeometry x="660" y="670" width="120" height="60" as="geometry" />
        </mxCell>
        <mxCell id="QUh3xT0CynpCOKGYQze3-7" value="&lt;font color=&quot;#ffffff&quot; size=&quot;1&quot; style=&quot;&quot;&gt;COD_SUC&lt;/font&gt;" style="ellipse;whiteSpace=wrap;html=1;fontSize=13;fillColor=#000000;" vertex="1" parent="1">
          <mxGeometry x="30" y="210" width="60" height="30" as="geometry" />
        </mxCell>
        <mxCell id="QUh3xT0CynpCOKGYQze3-8" value="DOM_SUC" style="ellipse;whiteSpace=wrap;html=1;fontSize=10;" vertex="1" parent="1">
          <mxGeometry x="100" y="170" width="60" height="30" as="geometry" />
        </mxCell>
        <mxCell id="QUh3xT0CynpCOKGYQze3-9" value="TEL_SUC" style="ellipse;whiteSpace=wrap;html=1;fontSize=10;" vertex="1" parent="1">
          <mxGeometry x="190" y="200" width="60" height="30" as="geometry" />
        </mxCell>
        <mxCell id="QUh3xT0CynpCOKGYQze3-10" value="NOM_EMP" style="ellipse;whiteSpace=wrap;html=1;fontSize=10;" vertex="1" parent="1">
          <mxGeometry x="70" y="780" width="60" height="30" as="geometry" />
        </mxCell>
        <mxCell id="QUh3xT0CynpCOKGYQze3-11" value="APE_EMP" style="ellipse;whiteSpace=wrap;html=1;fontSize=10;" vertex="1" parent="1">
          <mxGeometry x="180" y="780" width="50" height="30" as="geometry" />
        </mxCell>
        <mxCell id="QUh3xT0CynpCOKGYQze3-12" value="&lt;font style=&quot;background-color: rgb(0, 0, 0);&quot; color=&quot;#ffffff&quot;&gt;NIF_EMP&lt;/font&gt;" style="ellipse;whiteSpace=wrap;html=1;fontSize=10;fillColor=#000000;" vertex="1" parent="1">
          <mxGeometry x="20" y="720" width="50" height="30" as="geometry" />
        </mxCell>
        <mxCell id="QUh3xT0CynpCOKGYQze3-13" value="TEL_EMP" style="ellipse;whiteSpace=wrap;html=1;fontSize=10;" vertex="1" parent="1">
          <mxGeometry x="240" y="720" width="60" height="30" as="geometry" />
        </mxCell>
        <mxCell id="QUh3xT0CynpCOKGYQze3-14" value="" style="endArrow=none;html=1;rounded=0;fontSize=10;exitX=0;exitY=0;exitDx=0;exitDy=0;" edge="1" parent="1" source="QUh3xT0CynpCOKGYQze3-1">
          <mxGeometry width="50" height="50" relative="1" as="geometry">
            <mxPoint x="10" y="290" as="sourcePoint" />
            <mxPoint x="60" y="240" as="targetPoint" />
          </mxGeometry>
        </mxCell>
        <mxCell id="QUh3xT0CynpCOKGYQze3-15" value="" style="endArrow=none;html=1;rounded=0;fontSize=10;exitX=0.25;exitY=0;exitDx=0;exitDy=0;entryX=0.5;entryY=1;entryDx=0;entryDy=0;" edge="1" parent="1" source="QUh3xT0CynpCOKGYQze3-1" target="QUh3xT0CynpCOKGYQze3-8">
          <mxGeometry width="50" height="50" relative="1" as="geometry">
            <mxPoint x="120" y="250" as="sourcePoint" />
            <mxPoint x="170" y="200" as="targetPoint" />
          </mxGeometry>
        </mxCell>
        <mxCell id="QUh3xT0CynpCOKGYQze3-16" value="" style="endArrow=none;html=1;rounded=0;fontSize=10;entryX=0.333;entryY=1;entryDx=0;entryDy=0;entryPerimeter=0;exitX=0.5;exitY=0;exitDx=0;exitDy=0;" edge="1" parent="1" source="QUh3xT0CynpCOKGYQze3-1" target="QUh3xT0CynpCOKGYQze3-9">
          <mxGeometry width="50" height="50" relative="1" as="geometry">
            <mxPoint x="200" y="280" as="sourcePoint" />
            <mxPoint x="250" y="230" as="targetPoint" />
          </mxGeometry>
        </mxCell>
        <mxCell id="QUh3xT0CynpCOKGYQze3-17" value="" style="endArrow=none;html=1;rounded=0;fontSize=10;fontColor=#FFFFFF;exitX=0.5;exitY=0;exitDx=0;exitDy=0;entryX=0;entryY=0.75;entryDx=0;entryDy=0;" edge="1" parent="1" source="QUh3xT0CynpCOKGYQze3-12" target="QUh3xT0CynpCOKGYQze3-3">
          <mxGeometry width="50" height="50" relative="1" as="geometry">
            <mxPoint x="390" y="740" as="sourcePoint" />
            <mxPoint x="440" y="690" as="targetPoint" />
            <Array as="points">
              <mxPoint x="80" y="690" />
            </Array>
          </mxGeometry>
        </mxCell>
        <mxCell id="QUh3xT0CynpCOKGYQze3-18" value="" style="endArrow=none;html=1;rounded=0;fontSize=10;fontColor=#FFFFFF;entryX=0.25;entryY=1;entryDx=0;entryDy=0;exitX=0.5;exitY=0;exitDx=0;exitDy=0;" edge="1" parent="1" source="QUh3xT0CynpCOKGYQze3-10" target="QUh3xT0CynpCOKGYQze3-3">
          <mxGeometry width="50" height="50" relative="1" as="geometry">
            <mxPoint x="120" y="740" as="sourcePoint" />
            <mxPoint x="170" y="690" as="targetPoint" />
          </mxGeometry>
        </mxCell>
        <mxCell id="QUh3xT0CynpCOKGYQze3-19" value="" style="endArrow=none;html=1;rounded=0;fontSize=10;fontColor=#FFFFFF;exitX=0.5;exitY=0;exitDx=0;exitDy=0;entryX=0.5;entryY=1;entryDx=0;entryDy=0;" edge="1" parent="1" source="QUh3xT0CynpCOKGYQze3-11" target="QUh3xT0CynpCOKGYQze3-3">
          <mxGeometry width="50" height="50" relative="1" as="geometry">
            <mxPoint x="170" y="750" as="sourcePoint" />
            <mxPoint x="220" y="700" as="targetPoint" />
          </mxGeometry>
        </mxCell>
        <mxCell id="QUh3xT0CynpCOKGYQze3-20" value="" style="endArrow=none;html=1;rounded=0;fontSize=10;fontColor=#FFFFFF;exitX=0;exitY=0;exitDx=0;exitDy=0;entryX=0.75;entryY=1;entryDx=0;entryDy=0;" edge="1" parent="1" source="QUh3xT0CynpCOKGYQze3-13" target="QUh3xT0CynpCOKGYQze3-3">
          <mxGeometry width="50" height="50" relative="1" as="geometry">
            <mxPoint x="220" y="720" as="sourcePoint" />
            <mxPoint x="270" y="670" as="targetPoint" />
          </mxGeometry>
        </mxCell>
        <mxCell id="QUh3xT0CynpCOKGYQze3-21" value="ISBN" style="ellipse;whiteSpace=wrap;html=1;labelBackgroundColor=#000000;fontSize=10;fontColor=#FFFFFF;fillColor=#000000;" vertex="1" parent="1">
          <mxGeometry x="590" y="377.5" width="40" height="20" as="geometry" />
        </mxCell>
        <mxCell id="QUh3xT0CynpCOKGYQze3-24" value="PERIOD" style="ellipse;whiteSpace=wrap;html=1;labelBackgroundColor=#FFFFFF;fontSize=10;fontColor=#000000;strokeColor=default;fillColor=#FFFFFF;" vertex="1" parent="1">
          <mxGeometry x="590" y="180" width="40" height="30" as="geometry" />
        </mxCell>
        <mxCell id="QUh3xT0CynpCOKGYQze3-25" value="TIPO" style="ellipse;whiteSpace=wrap;html=1;labelBackgroundColor=#FFFFFF;fontSize=10;fontColor=#000000;strokeColor=default;fillColor=#FFFFFF;" vertex="1" parent="1">
          <mxGeometry x="820" y="377.5" width="30" height="25" as="geometry" />
        </mxCell>
        <mxCell id="QUh3xT0CynpCOKGYQze3-26" value="TITULO" style="ellipse;whiteSpace=wrap;html=1;labelBackgroundColor=#FFFFFF;fontSize=10;fontColor=#000000;strokeColor=default;fillColor=#FFFFFF;" vertex="1" parent="1">
          <mxGeometry x="805" y="180" width="45" height="22.5" as="geometry" />
        </mxCell>
        <mxCell id="QUh3xT0CynpCOKGYQze3-27" value="&lt;font style=&quot;background-color: rgb(0, 0, 0);&quot; color=&quot;#ffffff&quot;&gt;NIF_PER&lt;/font&gt;" style="ellipse;whiteSpace=wrap;html=1;fontSize=10;fillColor=#000000;" vertex="1" parent="1">
          <mxGeometry x="1295" y="170" width="50" height="30" as="geometry" />
        </mxCell>
        <mxCell id="QUh3xT0CynpCOKGYQze3-28" value="NOM_PER" style="ellipse;whiteSpace=wrap;html=1;fontSize=10;" vertex="1" parent="1">
          <mxGeometry x="1290" y="410" width="60" height="30" as="geometry" />
        </mxCell>
        <mxCell id="QUh3xT0CynpCOKGYQze3-29" value="APE_PER" style="ellipse;whiteSpace=wrap;html=1;fontSize=10;" vertex="1" parent="1">
          <mxGeometry x="1357" y="505" width="50" height="30" as="geometry" />
        </mxCell>
        <mxCell id="QUh3xT0CynpCOKGYQze3-30" value="TEL_PER" style="ellipse;whiteSpace=wrap;html=1;fontSize=10;" vertex="1" parent="1">
          <mxGeometry x="1407" y="410" width="60" height="30" as="geometry" />
        </mxCell>
        <mxCell id="QUh3xT0CynpCOKGYQze3-32" value="ESP_PER" style="ellipse;whiteSpace=wrap;html=1;labelBackgroundColor=#FFFFFF;fontSize=10;fontColor=#000000;strokeColor=default;fillColor=#FFFFFF;" vertex="1" parent="1">
          <mxGeometry x="1430" y="170" width="60" height="30" as="geometry" />
        </mxCell>
        <mxCell id="QUh3xT0CynpCOKGYQze3-33" value="" style="endArrow=none;html=1;rounded=0;fontSize=10;fontColor=#000000;exitX=0.25;exitY=0;exitDx=0;exitDy=0;entryX=0.5;entryY=1;entryDx=0;entryDy=0;" edge="1" parent="1" source="QUh3xT0CynpCOKGYQze3-5" target="QUh3xT0CynpCOKGYQze3-27">
          <mxGeometry width="50" height="50" relative="1" as="geometry">
            <mxPoint x="1310" y="260" as="sourcePoint" />
            <mxPoint x="1360" y="210" as="targetPoint" />
          </mxGeometry>
        </mxCell>
        <mxCell id="QUh3xT0CynpCOKGYQze3-34" value="" style="endArrow=none;html=1;rounded=0;fontSize=10;fontColor=#000000;" edge="1" parent="1">
          <mxGeometry width="50" height="50" relative="1" as="geometry">
            <mxPoint x="1410" y="290" as="sourcePoint" />
            <mxPoint x="1460" y="200" as="targetPoint" />
            <Array as="points" />
          </mxGeometry>
        </mxCell>
        <mxCell id="QUh3xT0CynpCOKGYQze3-35" value="" style="endArrow=none;html=1;rounded=0;fontSize=10;fontColor=#000000;entryX=0.25;entryY=1;entryDx=0;entryDy=0;exitX=0.5;exitY=0;exitDx=0;exitDy=0;" edge="1" parent="1" source="QUh3xT0CynpCOKGYQze3-28" target="QUh3xT0CynpCOKGYQze3-5">
          <mxGeometry width="50" height="50" relative="1" as="geometry">
            <mxPoint x="1320" y="410" as="sourcePoint" />
            <mxPoint x="1370" y="360" as="targetPoint" />
          </mxGeometry>
        </mxCell>
        <mxCell id="QUh3xT0CynpCOKGYQze3-36" value="" style="endArrow=none;html=1;rounded=0;fontSize=10;fontColor=#000000;entryX=0.75;entryY=1;entryDx=0;entryDy=0;exitX=0.5;exitY=0;exitDx=0;exitDy=0;" edge="1" parent="1" source="QUh3xT0CynpCOKGYQze3-30" target="QUh3xT0CynpCOKGYQze3-5">
          <mxGeometry width="50" height="50" relative="1" as="geometry">
            <mxPoint x="1410" y="410" as="sourcePoint" />
            <mxPoint x="1460" y="360" as="targetPoint" />
          </mxGeometry>
        </mxCell>
        <mxCell id="QUh3xT0CynpCOKGYQze3-37" value="" style="endArrow=none;html=1;rounded=0;fontSize=10;fontColor=#000000;exitX=0.5;exitY=0;exitDx=0;exitDy=0;entryX=0.5;entryY=1;entryDx=0;entryDy=0;" edge="1" parent="1" target="QUh3xT0CynpCOKGYQze3-5">
          <mxGeometry width="50" height="50" relative="1" as="geometry">
            <mxPoint x="1382" y="505" as="sourcePoint" />
            <mxPoint x="1080" y="290" as="targetPoint" />
          </mxGeometry>
        </mxCell>
        <mxCell id="QUh3xT0CynpCOKGYQze3-38" value="" style="endArrow=none;html=1;rounded=0;fontSize=10;fontColor=#000000;entryX=0.5;entryY=1;entryDx=0;entryDy=0;exitX=0.25;exitY=0;exitDx=0;exitDy=0;" edge="1" parent="1" source="QUh3xT0CynpCOKGYQze3-4">
          <mxGeometry width="50" height="50" relative="1" as="geometry">
            <mxPoint x="620" y="242.5" as="sourcePoint" />
            <mxPoint x="620" y="200" as="targetPoint" />
          </mxGeometry>
        </mxCell>
        <mxCell id="QUh3xT0CynpCOKGYQze3-39" value="" style="endArrow=none;html=1;rounded=0;fontSize=10;fontColor=#000000;entryX=0.5;entryY=1;entryDx=0;entryDy=0;exitX=0.75;exitY=0;exitDx=0;exitDy=0;" edge="1" parent="1" source="QUh3xT0CynpCOKGYQze3-4" target="QUh3xT0CynpCOKGYQze3-26">
          <mxGeometry width="50" height="50" relative="1" as="geometry">
            <mxPoint x="800" y="252.5" as="sourcePoint" />
            <mxPoint x="850" y="202.5" as="targetPoint" />
          </mxGeometry>
        </mxCell>
        <mxCell id="QUh3xT0CynpCOKGYQze3-40" value="" style="endArrow=none;html=1;rounded=0;fontSize=10;fontColor=#000000;entryX=0.007;entryY=0.87;entryDx=0;entryDy=0;entryPerimeter=0;exitX=1;exitY=0;exitDx=0;exitDy=0;" edge="1" parent="1" source="QUh3xT0CynpCOKGYQze3-21" target="QUh3xT0CynpCOKGYQze3-4">
          <mxGeometry width="50" height="50" relative="1" as="geometry">
            <mxPoint x="620" y="372.5" as="sourcePoint" />
            <mxPoint x="680" y="322.5" as="targetPoint" />
          </mxGeometry>
        </mxCell>
        <mxCell id="QUh3xT0CynpCOKGYQze3-41" value="" style="endArrow=none;html=1;rounded=0;fontSize=10;fontColor=#000000;entryX=0.75;entryY=1;entryDx=0;entryDy=0;exitX=0;exitY=0;exitDx=0;exitDy=0;" edge="1" parent="1" source="QUh3xT0CynpCOKGYQze3-25" target="QUh3xT0CynpCOKGYQze3-4">
          <mxGeometry width="50" height="50" relative="1" as="geometry">
            <mxPoint x="780" y="392.5" as="sourcePoint" />
            <mxPoint x="830" y="342.5" as="targetPoint" />
          </mxGeometry>
        </mxCell>
        <mxCell id="QUh3xT0CynpCOKGYQze3-42" value="&lt;font style=&quot;font-size: 13px;&quot;&gt;&lt;b&gt;INFO. EJEMPLAR&lt;/b&gt;&lt;/font&gt;" style="rounded=1;whiteSpace=wrap;html=1;labelBackgroundColor=#FFFFFF;fontSize=10;fontColor=#000000;strokeColor=default;fillColor=#FFFFFF;" vertex="1" parent="1">
          <mxGeometry x="660" y="-230" width="120" height="50" as="geometry" />
        </mxCell>
        <mxCell id="QUh3xT0CynpCOKGYQze3-43" value="TIENE / TRABAJAN" style="rhombus;whiteSpace=wrap;html=1;labelBackgroundColor=#FFFFFF;fontSize=13;fontColor=#000000;strokeColor=default;fillColor=#FFFFFF;" vertex="1" parent="1">
          <mxGeometry x="80" y="430" width="150" height="85" as="geometry" />
        </mxCell>
        <mxCell id="QUh3xT0CynpCOKGYQze3-44" value="" style="endArrow=none;html=1;rounded=0;fontSize=13;fontColor=#000000;exitX=0.5;exitY=0;exitDx=0;exitDy=0;" edge="1" parent="1" source="QUh3xT0CynpCOKGYQze3-43">
          <mxGeometry width="50" height="50" relative="1" as="geometry">
            <mxPoint x="390" y="330" as="sourcePoint" />
            <mxPoint x="155" y="350" as="targetPoint" />
            <Array as="points" />
          </mxGeometry>
        </mxCell>
        <mxCell id="QUh3xT0CynpCOKGYQze3-45" value="" style="endArrow=none;html=1;rounded=0;fontSize=13;fontColor=#000000;entryX=0.5;entryY=1;entryDx=0;entryDy=0;exitX=0.5;exitY=0;exitDx=0;exitDy=0;" edge="1" parent="1" source="QUh3xT0CynpCOKGYQze3-3" target="QUh3xT0CynpCOKGYQze3-43">
          <mxGeometry width="50" height="50" relative="1" as="geometry">
            <mxPoint x="130" y="600" as="sourcePoint" />
            <mxPoint x="180" y="550" as="targetPoint" />
          </mxGeometry>
        </mxCell>
        <mxCell id="QUh3xT0CynpCOKGYQze3-46" value="PUBLICA" style="rhombus;whiteSpace=wrap;html=1;labelBackgroundColor=#FFFFFF;fontSize=13;fontColor=#000000;strokeColor=default;fillColor=#FFFFFF;" vertex="1" parent="1">
          <mxGeometry x="390" y="270" width="80" height="80" as="geometry" />
        </mxCell>
        <mxCell id="QUh3xT0CynpCOKGYQze3-47" value="" style="endArrow=none;html=1;rounded=0;fontSize=13;fontColor=#000000;exitX=1;exitY=0.5;exitDx=0;exitDy=0;entryX=0;entryY=0.5;entryDx=0;entryDy=0;" edge="1" parent="1" source="QUh3xT0CynpCOKGYQze3-1" target="QUh3xT0CynpCOKGYQze3-46">
          <mxGeometry width="50" height="50" relative="1" as="geometry">
            <mxPoint x="280" y="340" as="sourcePoint" />
            <mxPoint x="330" y="290" as="targetPoint" />
          </mxGeometry>
        </mxCell>
        <mxCell id="QUh3xT0CynpCOKGYQze3-48" value="" style="endArrow=none;html=1;rounded=0;fontSize=13;fontColor=#000000;exitX=1;exitY=0.5;exitDx=0;exitDy=0;entryX=0;entryY=0.5;entryDx=0;entryDy=0;" edge="1" parent="1" source="QUh3xT0CynpCOKGYQze3-46" target="QUh3xT0CynpCOKGYQze3-4">
          <mxGeometry width="50" height="50" relative="1" as="geometry">
            <mxPoint x="500" y="350" as="sourcePoint" />
            <mxPoint x="550" y="300" as="targetPoint" />
          </mxGeometry>
        </mxCell>
        <mxCell id="QUh3xT0CynpCOKGYQze3-49" value="ESCRIBEN PARA&amp;nbsp;" style="rhombus;whiteSpace=wrap;html=1;labelBackgroundColor=#FFFFFF;fontSize=13;fontColor=#000000;strokeColor=default;fillColor=#FFFFFF;" vertex="1" parent="1">
          <mxGeometry x="940" y="270" width="140" height="80" as="geometry" />
        </mxCell>
        <mxCell id="QUh3xT0CynpCOKGYQze3-50" value="" style="endArrow=none;html=1;rounded=0;fontSize=13;fontColor=#000000;entryX=0;entryY=0.5;entryDx=0;entryDy=0;exitX=1;exitY=0.5;exitDx=0;exitDy=0;" edge="1" parent="1" source="QUh3xT0CynpCOKGYQze3-4" target="QUh3xT0CynpCOKGYQze3-49">
          <mxGeometry width="50" height="50" relative="1" as="geometry">
            <mxPoint x="800" y="330" as="sourcePoint" />
            <mxPoint x="850" y="280" as="targetPoint" />
          </mxGeometry>
        </mxCell>
        <mxCell id="QUh3xT0CynpCOKGYQze3-51" value="" style="endArrow=none;html=1;rounded=0;fontSize=13;fontColor=#000000;exitX=1;exitY=0.5;exitDx=0;exitDy=0;entryX=0;entryY=0.5;entryDx=0;entryDy=0;" edge="1" parent="1" source="QUh3xT0CynpCOKGYQze3-49" target="QUh3xT0CynpCOKGYQze3-5">
          <mxGeometry width="50" height="50" relative="1" as="geometry">
            <mxPoint x="1140" y="320" as="sourcePoint" />
            <mxPoint x="1190" y="270" as="targetPoint" />
          </mxGeometry>
        </mxCell>
        <mxCell id="QUh3xT0CynpCOKGYQze3-52" value="TIENE" style="rhombus;whiteSpace=wrap;html=1;labelBackgroundColor=#FFFFFF;fontSize=13;fontColor=#000000;strokeColor=default;fillColor=#FFFFFF;" vertex="1" parent="1">
          <mxGeometry x="680" y="475" width="80" height="60" as="geometry" />
        </mxCell>
        <mxCell id="QUh3xT0CynpCOKGYQze3-53" value="" style="endArrow=none;html=1;rounded=0;fontSize=13;fontColor=#000000;exitX=0.5;exitY=0;exitDx=0;exitDy=0;entryX=0.5;entryY=1;entryDx=0;entryDy=0;" edge="1" parent="1" source="QUh3xT0CynpCOKGYQze3-52" target="QUh3xT0CynpCOKGYQze3-4">
          <mxGeometry width="50" height="50" relative="1" as="geometry">
            <mxPoint x="700" y="410" as="sourcePoint" />
            <mxPoint x="750" y="360" as="targetPoint" />
          </mxGeometry>
        </mxCell>
        <mxCell id="QUh3xT0CynpCOKGYQze3-54" value="" style="endArrow=none;html=1;rounded=0;fontSize=13;fontColor=#000000;entryX=0.5;entryY=1;entryDx=0;entryDy=0;exitX=0.5;exitY=0;exitDx=0;exitDy=0;" edge="1" parent="1" source="QUh3xT0CynpCOKGYQze3-6" target="QUh3xT0CynpCOKGYQze3-52">
          <mxGeometry width="50" height="50" relative="1" as="geometry">
            <mxPoint x="690" y="630" as="sourcePoint" />
            <mxPoint x="740" y="580" as="targetPoint" />
          </mxGeometry>
        </mxCell>
        <mxCell id="QUh3xT0CynpCOKGYQze3-55" value="PUBLICA" style="rhombus;whiteSpace=wrap;html=1;labelBackgroundColor=#FFFFFF;fontSize=13;fontColor=#000000;strokeColor=default;fillColor=#FFFFFF;" vertex="1" parent="1">
          <mxGeometry x="680" width="80" height="50" as="geometry" />
        </mxCell>
        <mxCell id="QUh3xT0CynpCOKGYQze3-56" value="" style="endArrow=none;html=1;rounded=0;fontSize=13;fontColor=#000000;entryX=0.5;entryY=1;entryDx=0;entryDy=0;" edge="1" parent="1" target="QUh3xT0CynpCOKGYQze3-55">
          <mxGeometry width="50" height="50" relative="1" as="geometry">
            <mxPoint x="720" y="280" as="sourcePoint" />
            <mxPoint x="750" y="110" as="targetPoint" />
          </mxGeometry>
        </mxCell>
        <mxCell id="QUh3xT0CynpCOKGYQze3-57" value="" style="endArrow=none;html=1;rounded=0;fontSize=13;fontColor=#000000;entryX=0.5;entryY=1;entryDx=0;entryDy=0;exitX=0.5;exitY=0;exitDx=0;exitDy=0;" edge="1" parent="1" source="QUh3xT0CynpCOKGYQze3-55" target="QUh3xT0CynpCOKGYQze3-42">
          <mxGeometry width="50" height="50" relative="1" as="geometry">
            <mxPoint x="690" y="-80" as="sourcePoint" />
            <mxPoint x="740" y="-130" as="targetPoint" />
          </mxGeometry>
        </mxCell>
        <mxCell id="QUh3xT0CynpCOKGYQze3-58" value="&lt;font style=&quot;font-size: 15px;&quot;&gt;&lt;b&gt;N&lt;br&gt;:&lt;br&gt;&lt;/b&gt;&lt;/font&gt;" style="text;html=1;align=center;verticalAlign=middle;resizable=0;points=[];autosize=1;strokeColor=none;fillColor=none;fontSize=13;fontColor=#000000;" vertex="1" parent="1">
          <mxGeometry x="55" y="430" width="30" height="40" as="geometry" />
        </mxCell>
        <mxCell id="QUh3xT0CynpCOKGYQze3-59" value="&lt;font size=&quot;1&quot; style=&quot;&quot;&gt;&lt;b style=&quot;font-size: 15px;&quot;&gt;1&lt;/b&gt;&lt;/font&gt;" style="text;html=1;align=center;verticalAlign=middle;resizable=0;points=[];autosize=1;strokeColor=none;fillColor=none;fontSize=13;fontColor=#000000;" vertex="1" parent="1">
          <mxGeometry x="60" y="475" width="20" height="20" as="geometry" />
        </mxCell>
        <mxCell id="QUh3xT0CynpCOKGYQze3-60" value="&lt;span style=&quot;font-size: 14px;&quot;&gt;&lt;b&gt;1&lt;br&gt;:&lt;br&gt;1&lt;/b&gt;&lt;/span&gt;" style="text;html=1;align=center;verticalAlign=middle;resizable=0;points=[];autosize=1;strokeColor=none;fillColor=none;fontSize=13;fontColor=#000000;" vertex="1" parent="1">
          <mxGeometry x="180" y="560" width="20" height="50" as="geometry" />
        </mxCell>
        <mxCell id="QUh3xT0CynpCOKGYQze3-61" value="&lt;font style=&quot;font-size: 14px;&quot;&gt;&lt;b&gt;1&lt;br&gt;:&lt;br&gt;N&lt;/b&gt;&lt;/font&gt;" style="text;html=1;align=center;verticalAlign=middle;resizable=0;points=[];autosize=1;strokeColor=none;fillColor=none;fontSize=13;fontColor=#000000;" vertex="1" parent="1">
          <mxGeometry x="160" y="360" width="30" height="50" as="geometry" />
        </mxCell>
        <mxCell id="QUh3xT0CynpCOKGYQze3-62" value="&lt;font style=&quot;background-color: rgb(255, 255, 255);&quot;&gt;TIT_SEC&lt;/font&gt;" style="ellipse;whiteSpace=wrap;html=1;labelBackgroundColor=#FFFFFF;fontSize=14;fontColor=#000000;strokeColor=default;fillColor=#FFFFFF;" vertex="1" parent="1">
          <mxGeometry x="610" y="800" width="70" height="30" as="geometry" />
        </mxCell>
        <mxCell id="QUh3xT0CynpCOKGYQze3-63" value="EXT." style="ellipse;whiteSpace=wrap;html=1;labelBackgroundColor=#FFFFFF;fontSize=14;fontColor=#000000;strokeColor=default;fillColor=#FFFFFF;" vertex="1" parent="1">
          <mxGeometry x="810" y="800" width="50" height="30" as="geometry" />
        </mxCell>
        <mxCell id="QUh3xT0CynpCOKGYQze3-65" value="" style="endArrow=none;html=1;rounded=0;fontSize=14;fontColor=#000000;entryX=0.25;entryY=1;entryDx=0;entryDy=0;exitX=0.5;exitY=0;exitDx=0;exitDy=0;" edge="1" parent="1" source="QUh3xT0CynpCOKGYQze3-62" target="QUh3xT0CynpCOKGYQze3-6">
          <mxGeometry width="50" height="50" relative="1" as="geometry">
            <mxPoint x="650" y="790" as="sourcePoint" />
            <mxPoint x="700" y="740" as="targetPoint" />
          </mxGeometry>
        </mxCell>
        <mxCell id="QUh3xT0CynpCOKGYQze3-66" value="" style="endArrow=none;html=1;rounded=0;fontSize=14;fontColor=#000000;entryX=0.846;entryY=1.024;entryDx=0;entryDy=0;entryPerimeter=0;exitX=0.5;exitY=0;exitDx=0;exitDy=0;" edge="1" parent="1" source="QUh3xT0CynpCOKGYQze3-63" target="QUh3xT0CynpCOKGYQze3-6">
          <mxGeometry width="50" height="50" relative="1" as="geometry">
            <mxPoint x="780" y="780" as="sourcePoint" />
            <mxPoint x="830" y="730" as="targetPoint" />
          </mxGeometry>
        </mxCell>
        <mxCell id="QUh3xT0CynpCOKGYQze3-68" value="FECHA_EJEM" style="ellipse;whiteSpace=wrap;html=1;labelBackgroundColor=#FFFFFF;fontSize=14;fontColor=#000000;strokeColor=default;fillColor=#FFFFFF;" vertex="1" parent="1">
          <mxGeometry x="500" y="-340" width="110" height="40" as="geometry" />
        </mxCell>
        <mxCell id="QUh3xT0CynpCOKGYQze3-69" value="NUM_PAG" style="ellipse;whiteSpace=wrap;html=1;labelBackgroundColor=#FFFFFF;fontSize=14;fontColor=#000000;strokeColor=default;fillColor=#FFFFFF;" vertex="1" parent="1">
          <mxGeometry x="670" y="-390" width="80" height="40" as="geometry" />
        </mxCell>
        <mxCell id="QUh3xT0CynpCOKGYQze3-70" value="VTAS_EJEM" style="ellipse;whiteSpace=wrap;html=1;labelBackgroundColor=#FFFFFF;fontSize=14;fontColor=#000000;strokeColor=default;fillColor=#FFFFFF;" vertex="1" parent="1">
          <mxGeometry x="827" y="-350" width="90" height="50" as="geometry" />
        </mxCell>
        <mxCell id="QUh3xT0CynpCOKGYQze3-71" value="" style="endArrow=none;html=1;rounded=0;fontSize=14;fontColor=#000000;entryX=0.5;entryY=1;entryDx=0;entryDy=0;exitX=0.25;exitY=0;exitDx=0;exitDy=0;" edge="1" parent="1" source="QUh3xT0CynpCOKGYQze3-42" target="QUh3xT0CynpCOKGYQze3-68">
          <mxGeometry width="50" height="50" relative="1" as="geometry">
            <mxPoint x="590" y="-260" as="sourcePoint" />
            <mxPoint x="640" y="-310" as="targetPoint" />
          </mxGeometry>
        </mxCell>
        <mxCell id="QUh3xT0CynpCOKGYQze3-72" value="" style="endArrow=none;html=1;rounded=0;fontSize=14;fontColor=#000000;entryX=0.5;entryY=1;entryDx=0;entryDy=0;exitX=0.5;exitY=0;exitDx=0;exitDy=0;" edge="1" parent="1" source="QUh3xT0CynpCOKGYQze3-42" target="QUh3xT0CynpCOKGYQze3-69">
          <mxGeometry width="50" height="50" relative="1" as="geometry">
            <mxPoint x="700" y="-270" as="sourcePoint" />
            <mxPoint x="750" y="-320" as="targetPoint" />
          </mxGeometry>
        </mxCell>
        <mxCell id="QUh3xT0CynpCOKGYQze3-73" value="" style="endArrow=none;html=1;rounded=0;fontSize=14;fontColor=#000000;entryX=0.5;entryY=1;entryDx=0;entryDy=0;exitX=0.75;exitY=0;exitDx=0;exitDy=0;" edge="1" parent="1" source="QUh3xT0CynpCOKGYQze3-42" target="QUh3xT0CynpCOKGYQze3-70">
          <mxGeometry width="50" height="50" relative="1" as="geometry">
            <mxPoint x="790" y="-240" as="sourcePoint" />
            <mxPoint x="840" y="-290" as="targetPoint" />
          </mxGeometry>
        </mxCell>
        <mxCell id="QUh3xT0CynpCOKGYQze3-74" value="&lt;font style=&quot;background-color: rgb(0, 0, 0);&quot; color=&quot;#ffffff&quot;&gt;ID&lt;/font&gt;" style="ellipse;whiteSpace=wrap;html=1;labelBackgroundColor=#FFFFFF;fontSize=14;fontColor=#000000;strokeColor=default;fillColor=#000000;" vertex="1" parent="1">
          <mxGeometry x="535" y="740" width="40" height="40" as="geometry" />
        </mxCell>
        <mxCell id="QUh3xT0CynpCOKGYQze3-75" value="&lt;font style=&quot;background-color: rgb(0, 0, 0);&quot; color=&quot;#ffffff&quot;&gt;ID&lt;/font&gt;" style="ellipse;whiteSpace=wrap;html=1;labelBackgroundColor=#FFFFFF;fontSize=14;fontColor=#000000;strokeColor=default;fillColor=#000000;" vertex="1" parent="1">
          <mxGeometry x="460" y="-220" width="40" height="40" as="geometry" />
        </mxCell>
        <mxCell id="QUh3xT0CynpCOKGYQze3-76" value="" style="endArrow=none;html=1;rounded=0;fontSize=14;fontColor=#000000;exitX=1;exitY=0.5;exitDx=0;exitDy=0;entryX=0;entryY=0.5;entryDx=0;entryDy=0;" edge="1" parent="1" source="QUh3xT0CynpCOKGYQze3-75" target="QUh3xT0CynpCOKGYQze3-42">
          <mxGeometry width="50" height="50" relative="1" as="geometry">
            <mxPoint x="560" y="-160" as="sourcePoint" />
            <mxPoint x="610" y="-210" as="targetPoint" />
          </mxGeometry>
        </mxCell>
        <mxCell id="QUh3xT0CynpCOKGYQze3-77" value="" style="endArrow=none;html=1;rounded=0;fontSize=14;fontColor=#000000;exitX=1;exitY=0.5;exitDx=0;exitDy=0;entryX=0;entryY=0.75;entryDx=0;entryDy=0;" edge="1" parent="1" source="QUh3xT0CynpCOKGYQze3-74" target="QUh3xT0CynpCOKGYQze3-6">
          <mxGeometry width="50" height="50" relative="1" as="geometry">
            <mxPoint x="600" y="750" as="sourcePoint" />
            <mxPoint x="650" y="700" as="targetPoint" />
          </mxGeometry>
        </mxCell>
        <mxCell id="QUh3xT0CynpCOKGYQze3-78" value="&lt;b&gt;1:N&lt;/b&gt;" style="text;html=1;align=center;verticalAlign=middle;resizable=0;points=[];autosize=1;strokeColor=none;fillColor=none;fontSize=14;fontColor=#000000;" vertex="1" parent="1">
          <mxGeometry x="240" y="280" width="40" height="20" as="geometry" />
        </mxCell>
        <mxCell id="QUh3xT0CynpCOKGYQze3-79" value="&lt;b&gt;N:1&lt;/b&gt;" style="text;html=1;align=center;verticalAlign=middle;resizable=0;points=[];autosize=1;strokeColor=none;fillColor=none;fontSize=14;fontColor=#000000;" vertex="1" parent="1">
          <mxGeometry x="590" y="272.5" width="40" height="20" as="geometry" />
        </mxCell>
        <mxCell id="QUh3xT0CynpCOKGYQze3-80" value="&lt;b&gt;&lt;font style=&quot;font-size: 15px;&quot;&gt;N:N&lt;/font&gt;&lt;/b&gt;" style="text;html=1;align=center;verticalAlign=middle;resizable=0;points=[];autosize=1;strokeColor=none;fillColor=none;fontSize=14;fontColor=#000000;" vertex="1" parent="1">
          <mxGeometry x="410" y="240" width="40" height="20" as="geometry" />
        </mxCell>
        <mxCell id="QUh3xT0CynpCOKGYQze3-81" value="&lt;b&gt;N:1&lt;/b&gt;" style="text;html=1;align=center;verticalAlign=middle;resizable=0;points=[];autosize=1;strokeColor=none;fillColor=none;fontSize=14;fontColor=#000000;" vertex="1" parent="1">
          <mxGeometry x="1250" y="280" width="40" height="20" as="geometry" />
        </mxCell>
        <mxCell id="QUh3xT0CynpCOKGYQze3-82" value="&lt;b&gt;1:N&lt;/b&gt;" style="text;html=1;align=center;verticalAlign=middle;resizable=0;points=[];autosize=1;strokeColor=none;fillColor=none;fontSize=14;fontColor=#000000;" vertex="1" parent="1">
          <mxGeometry x="830" y="272.5" width="40" height="20" as="geometry" />
        </mxCell>
        <mxCell id="QUh3xT0CynpCOKGYQze3-83" value="&lt;b&gt;&lt;font style=&quot;font-size: 15px;&quot;&gt;N:N&lt;/font&gt;&lt;/b&gt;" style="text;html=1;align=center;verticalAlign=middle;resizable=0;points=[];autosize=1;strokeColor=none;fillColor=none;fontSize=14;fontColor=#000000;" vertex="1" parent="1">
          <mxGeometry x="990" y="230" width="40" height="20" as="geometry" />
        </mxCell>
        <mxCell id="QUh3xT0CynpCOKGYQze3-84" value="&lt;b&gt;N&lt;br&gt;:&lt;br&gt;1&lt;/b&gt;" style="text;html=1;strokeColor=none;fillColor=none;align=center;verticalAlign=middle;whiteSpace=wrap;rounded=0;labelBackgroundColor=#FFFFFF;fontSize=14;fontColor=#000000;" vertex="1" parent="1">
          <mxGeometry x="730" y="155" width="60" height="55" as="geometry" />
        </mxCell>
        <mxCell id="QUh3xT0CynpCOKGYQze3-85" value="&lt;b&gt;1&lt;br&gt;:&lt;br&gt;1&lt;/b&gt;" style="text;html=1;align=center;verticalAlign=middle;resizable=0;points=[];autosize=1;strokeColor=none;fillColor=none;fontSize=14;fontColor=#000000;" vertex="1" parent="1">
          <mxGeometry x="740" y="-170" width="20" height="60" as="geometry" />
        </mxCell>
        <mxCell id="QUh3xT0CynpCOKGYQze3-86" value="&lt;b style=&quot;font-size: 15px;&quot;&gt;1&lt;br&gt;:&lt;br&gt;N&lt;/b&gt;" style="text;html=1;align=center;verticalAlign=middle;resizable=0;points=[];autosize=1;strokeColor=none;fillColor=none;fontSize=14;fontColor=#000000;" vertex="1" parent="1">
          <mxGeometry x="630" y="-10" width="30" height="60" as="geometry" />
        </mxCell>
        <mxCell id="QUh3xT0CynpCOKGYQze3-87" value="&lt;font style=&quot;font-size: 14px;&quot;&gt;&lt;b&gt;1&lt;br&gt;:&lt;br&gt;N&lt;/b&gt;&lt;/font&gt;" style="text;html=1;align=center;verticalAlign=middle;resizable=0;points=[];autosize=1;strokeColor=none;fillColor=none;fontSize=15;fontColor=#000000;" vertex="1" parent="1">
          <mxGeometry x="735" y="370" width="30" height="60" as="geometry" />
        </mxCell>
        <mxCell id="QUh3xT0CynpCOKGYQze3-88" value="&lt;font style=&quot;font-size: 14px;&quot;&gt;&lt;b&gt;1&lt;br&gt;:&lt;br&gt;N&lt;br&gt;&lt;/b&gt;&lt;/font&gt;" style="text;html=1;align=center;verticalAlign=middle;resizable=0;points=[];autosize=1;strokeColor=none;fillColor=none;fontSize=15;fontColor=#000000;" vertex="1" parent="1">
          <mxGeometry x="745" y="600" width="30" height="60" as="geometry" />
        </mxCell>
        <mxCell id="QUh3xT0CynpCOKGYQze3-89" value="&lt;font style=&quot;font-size: 15px;&quot;&gt;&lt;b&gt;N&lt;br&gt;:&lt;br&gt;1&lt;/b&gt;&lt;/font&gt;" style="text;html=1;align=center;verticalAlign=middle;resizable=0;points=[];autosize=1;strokeColor=none;fillColor=none;fontSize=14;fontColor=#000000;" vertex="1" parent="1">
          <mxGeometry x="625" y="470" width="30" height="60" as="geometry" />
        </mxCell>
      </root>
    </mxGraphModel>
  </diagram>
</mxfile>
